<?xml version="1.0" encoding="utf-8"?>
<!-- Generator: Adobe Illustrator 19.2.1, SVG Export Plug-In . SVG Version: 6.00 Build 0)  -->
<svg version="1.1" id="Layer_1" xmlns="http://www.w3.org/2000/svg" xmlns:xlink="http://www.w3.org/1999/xlink" x="0px" y="0px"
	 viewBox="0 0 800 260" style="enable-background:new 0 0 800 260;" xml:space="preserve">
<style type="text/css">
	.st0{fill:#227F70;}
	.st1{fill:#565656;}
	.st2{fill:url(#SVGID_1_);stroke:#227F70;stroke-width:7;stroke-miterlimit:10;}
	.st3{fill:#FFFFFF;stroke:#227F70;stroke-miterlimit:10;}
	.st4{fill:none;stroke:#227F70;stroke-width:3;stroke-miterlimit:10;}
	.st5{fill:none;stroke:#227F70;stroke-width:6;stroke-miterlimit:10;}
	.st6{fill:#D0F6E2;stroke:#227F70;stroke-width:6;stroke-miterlimit:10;}
	.st7{fill:none;stroke:#227F70;stroke-miterlimit:10;}
	.st8{fill:#6BAA00;stroke:#227F70;stroke-width:6;stroke-miterlimit:10;}
</style>
<g>
	<path class="st0" d="M258.2,69.7c12.6,0,22.5,3.2,29.5,9.6c7,6.4,10.5,14.8,10.5,25.2c0,10.5-3.5,19-10.5,25.3
		c-7,6.3-16.8,9.5-29.5,9.5h-25.1v34.3l13.3,2.2v10h-42.5v-10l13.3-2.2V82.1l-13.3-2.2V69.7h13.3H258.2z M233.1,127h25.1
		c8,0,14-2.1,18-6.3c4-4.2,6-9.6,6-16c0-6.4-2-11.8-6-16.1s-10-6.5-18-6.5h-25.1V127z"/>
	<path class="st0" d="M367.6,185.9c-0.5-2.3-0.9-4.4-1.1-6.3c-0.3-1.9-0.5-3.7-0.6-5.6c-3.1,3.9-7,7.1-11.6,9.7
		c-4.6,2.6-9.6,3.9-14.8,3.9c-9.2,0-16.1-2.2-20.9-6.6c-4.8-4.4-7.2-10.6-7.2-18.5c0-8.2,3.4-14.5,10.1-18.9
		c6.7-4.4,16-6.7,27.8-6.7h16.5v-10c0-5.1-1.6-9.1-4.9-12c-3.3-3-7.8-4.4-13.6-4.4c-4,0-7.5,0.5-10.6,1.5c-3.1,1-5.5,2.4-7.4,4.1
		l-1.7,9.1h-12.4v-16.8c4-3.1,8.9-5.6,14.6-7.5c5.7-1.9,11.9-2.8,18.5-2.8c10,0,18,2.5,24.2,7.5c6.2,5,9.3,12.2,9.3,21.5v41.6
		c0,1.1,0,2.2,0,3.3c0,1.1,0.1,2.1,0.2,3.2l6.5,0.9v10H367.6z M341.8,174.4c5.3,0,10.2-1.2,14.6-3.7c4.4-2.5,7.5-5.5,9.4-9v-14.2
		h-17.1c-6.6,0-11.7,1.5-15.6,4.5c-3.8,3-5.7,6.6-5.7,10.8c0,3.8,1.2,6.7,3.6,8.7C333.4,173.4,337,174.4,341.8,174.4z"/>
	<path class="st0" d="M401.9,109.7V99.6h27.6l1.5,12.5c2.5-4.4,5.6-7.9,9.2-10.4c3.7-2.5,7.8-3.7,12.6-3.7c1.2,0,2.5,0.1,3.9,0.3
		c1.3,0.2,2.3,0.4,3,0.6l-2.1,14.6l-9.1-0.5c-4.2,0-7.8,1-10.7,2.9c-2.9,1.9-5.1,4.7-6.7,8.2v49.5l13.3,2.2v10h-42.5v-10l13.3-2.2
		v-61.7L401.9,109.7z"/>
	<path class="st0" d="M528.2,185.9c-0.5-2.3-0.9-4.4-1.1-6.3c-0.3-1.9-0.5-3.7-0.6-5.6c-3.1,3.9-7,7.1-11.6,9.7
		c-4.6,2.6-9.6,3.9-14.8,3.9c-9.2,0-16.1-2.2-20.9-6.6c-4.8-4.4-7.2-10.6-7.2-18.5c0-8.2,3.4-14.5,10.1-18.9
		c6.7-4.4,16-6.7,27.8-6.7h16.5v-10c0-5.1-1.6-9.1-4.9-12s-7.8-4.4-13.6-4.4c-4,0-7.5,0.5-10.6,1.5c-3.1,1-5.5,2.4-7.4,4.1l-1.7,9.1
		h-12.4v-16.8c4-3.1,8.9-5.6,14.6-7.5c5.7-1.9,11.9-2.8,18.5-2.8c10,0,18,2.5,24.2,7.5c6.2,5,9.3,12.2,9.3,21.5v41.6
		c0,1.1,0,2.2,0,3.3c0,1.1,0.1,2.1,0.2,3.2l6.5,0.9v10H528.2z M502.4,174.4c5.3,0,10.2-1.2,14.6-3.7c4.4-2.5,7.5-5.5,9.4-9v-14.2
		h-17.1c-6.6,0-11.7,1.5-15.6,4.5c-3.8,3-5.7,6.6-5.7,10.8c0,3.8,1.2,6.7,3.6,8.7C494,173.4,497.6,174.4,502.4,174.4z"/>
	<path class="st0" d="M560.5,208.9l13.3-2.2v-94.8l-13.3-2.2V99.6h27l1.5,10.5c2.9-3.9,6.5-6.9,10.7-9c4.2-2.1,9.1-3.1,14.6-3.1
		c10.9,0,19.4,4.2,25.4,12.7c6,8.5,9.1,19.7,9.1,33.6v1.7c0,12.4-3,22.5-9.1,30.1c-6.1,7.6-14.4,11.4-25.1,11.4
		c-5.4,0-10.2-0.9-14.3-2.7c-4.1-1.8-7.6-4.4-10.4-7.9v29.8l13.3,2.2v10.1h-42.5V208.9z M632.6,144.3c0-9.8-2-17.9-5.9-24.2
		c-3.9-6.3-9.7-9.4-17.4-9.4c-4.6,0-8.5,1-11.7,3c-3.3,2-5.9,4.8-7.9,8.3v42c2,3.6,4.6,6.3,7.8,8.3c3.2,1.9,7.2,2.9,11.9,2.9
		c7.6,0,13.3-2.7,17.2-8.1s5.9-12.5,5.9-21.1V144.3z"/>
	<path class="st1" d="M663.3,175.8l13.3-2.2v-61.7l-13.3-2.2V99.6h29.3v74l13.3,2.2v10h-42.5V175.8z M692.6,77.5h-16v-16h16V77.5z"
		/>
	<path class="st1" d="M746,78.8v20.8h16.7v11.6H746v52.4c0,4,0.9,6.9,2.6,8.5c1.7,1.6,4,2.5,6.8,2.5c1.4,0,3-0.1,4.8-0.4
		c1.8-0.2,3.2-0.5,4.4-0.8l2.2,10.8c-1.5,1-3.7,1.7-6.7,2.4c-2.9,0.6-5.9,0.9-8.8,0.9c-6.5,0-11.7-1.9-15.5-5.8
		c-3.8-3.9-5.8-9.9-5.8-18.1v-52.4h-13.9V99.6H730V78.8H746z"/>
</g>
<g>
	<linearGradient id="SVGID_1_" gradientUnits="userSpaceOnUse" x1="39.4043" y1="127.0679" x2="180.4043" y2="127.0679">
		<stop  offset="0.4749" style="stop-color:#FFFFFF"/>
		<stop  offset="0.4751" style="stop-color:#F5FDF9"/>
		<stop  offset="0.4755" style="stop-color:#E4FAEF"/>
		<stop  offset="0.476" style="stop-color:#D9F8E7"/>
		<stop  offset="0.4768" style="stop-color:#D2F6E3"/>
		<stop  offset="0.4788" style="stop-color:#D0F6E2"/>
	</linearGradient>
	<path class="st2" d="M36.1,58.6h28.2v26.9h28.2V58.6h28.2v26.9h28.2V58.6h28.2v26.9l-28.2,33v77.1c-27.3-10.1-55.5-9.5-84.6,0
		v-77.1l-28.2-33V58.6z"/>
	<path class="st3" d="M161,84.3"/>
	<path class="st4" d="M80.4,42.7"/>
	<line class="st5" x1="56.2" y1="58.6" x2="56.2" y2="32.9"/>
	<polygon class="st6" points="83.9,40.1 56.2,47.3 56.2,32.9 	"/>
	<path class="st7" d="M106.6,60"/>
	<line id="XMLID_1_" class="st8" x1="106.6" y1="60" x2="106.6" y2="60"/>
</g>
</svg>
